<svg xmlns="http://www.w3.org/2000/svg" version="1.1" xmlns:xlink="http://www.w3.org/1999/xlink" xmlns:svgjs="http://svgjs.dev/svgjs" width="1500" height="1500" viewBox="0 0 1500 1500"><rect width="1500" height="1500" fill="#000000"></rect><g transform="matrix(0.6666666666666666,0,0,0.6666666666666666,249.39393939393938,599.750173846091)"><svg viewBox="0 0 396 119" data-background-color="#000000" preserveAspectRatio="xMidYMid meet" height="450" width="1500" xmlns="http://www.w3.org/2000/svg" xmlns:xlink="http://www.w3.org/1999/xlink"><g id="tight-bounds" transform="matrix(1,0,0,1,0.2400000000000091,0.0990977077172488)"><svg viewBox="0 0 395.52 118.80180458456552" height="118.80180458456552" width="395.52"><g><svg viewBox="0 0 601.9339143803511 180.8020713719586" height="118.80180458456552" width="395.52"><g><svg viewBox="0 0 601.9339143803511 180.8020713719586" height="180.8020713719586" width="601.9339143803511"><g id="textblocktransform"><svg viewBox="0 0 601.9339143803511 180.8020713719586" height="180.8020713719586" width="601.9339143803511" id="textblock"><g><svg viewBox="0 0 601.9339143803511 134.38564453125" height="134.38564453125" width="601.9339143803511"><g><svg><g></g><g></g></svg></g><g><svg><g></g><g><svg></svg></g></svg></g><g id="text-0"><svg viewBox="0 0 601.9339143803511 134.38564453125" height="134.38564453125" width="601.9339143803511"><g><svg xmlns="http://www.w3.org/2000/svg" xmlns:xlink="http://www.w3.org/1999/xlink" version="1.1" x="0" y="0" viewBox="0.5000000000000002 10.9 71.03853870664699 50.1" enable-background="new 0 0 72 72" xml:space="preserve" height="134.38564453125" width="190.55009602097616" class="icon-cg-0" data-fill-palette-color="accent" id="cg-0"><g fill="#e92d0b" data-fill-palette-color="accent"><path fill="#e92d0b" d="M70.2 10.9H22.8c-0.6 0-1.1 0.4-1.3 1L8.8 59.4c-0.2 0.8 0.4 1.6 1.3 1.6h47.4c0.6 0 1.1-0.4 1.3-1l12.7-47.5C71.7 11.7 71.1 10.9 70.2 10.9zM19.6 53.1l-1 3.7c-0.2 0.6-0.7 1-1.3 1h-3.6c-0.9 0-1.5-0.8-1.3-1.6l1-3.7c0.2-0.6 0.7-1 1.3-1h3.6C19.2 51.4 19.9 52.2 19.6 53.1zM35.2 18.9l1-3.7c0.2-0.6 0.7-1 1.3-1h3.6c0.9 0 1.5 0.8 1.3 1.6l-1 3.7c-0.2 0.6-0.7 1-1.3 1h-3.6C35.6 20.6 34.9 19.8 35.2 18.9zM22.4 18.9l1-3.7c0.2-0.6 0.7-1 1.3-1h3.6c0.9 0 1.5 0.8 1.3 1.6l-1 3.7c-0.2 0.6-0.7 1-1.3 1h-3.6C22.8 20.6 22.2 19.8 22.4 18.9zM32.4 53.1l-1 3.7c-0.2 0.6-0.7 1-1.3 1h-3.6c-0.9 0-1.5-0.8-1.3-1.6l1-3.7c0.2-0.6 0.7-1 1.3-1h3.6C32 51.4 32.6 52.2 32.4 53.1zM45.1 53.1l-1 3.7c-0.2 0.6-0.7 1-1.3 1h-3.6c-0.9 0-1.5-0.8-1.3-1.6l1-3.7c0.2-0.6 0.7-1 1.3-1h3.6C44.7 51.4 45.3 52.2 45.1 53.1zM45.6 37.2l-11.7 9.3c-1.4 1.1-3 0.3-2.6-1.2l5-18.5c0.4-1.5 2.5-2.3 3.2-1.2l6.8 9.3C46.8 35.5 46.5 36.5 45.6 37.2zM47.9 18.9l1-3.7c0.2-0.6 0.7-1 1.3-1h3.6c0.9 0 1.5 0.8 1.3 1.6l-1 3.7c-0.2 0.6-0.7 1-1.3 1h-3.6C48.3 20.6 47.6 19.8 47.9 18.9zM57.8 53.1l-1 3.7c-0.2 0.6-0.7 1-1.3 1h-3.6c-0.9 0-1.5-0.8-1.3-1.6l1-3.7c0.2-0.6 0.7-1 1.3-1h3.6C57.4 51.4 58 52.2 57.8 53.1zM67.8 15.9l-1 3.7c-0.2 0.6-0.7 1-1.3 1h-3.6c-0.9 0-1.5-0.8-1.3-1.6l1-3.7c0.2-0.6 0.7-1 1.3-1h3.6C67.4 14.2 68 15 67.8 15.9z" data-fill-palette-color="accent"></path><path fill="#e92d0b" d="M3.2 24.1h9.4c1 0 1.7-0.8 1.7-1.7 0-1-0.8-1.7-1.7-1.7H3.2c-1 0-1.7 0.8-1.7 1.7C1.5 23.4 2.3 24.1 3.2 24.1z" data-fill-palette-color="accent"></path><path fill="#e92d0b" d="M2.2 33.2h7.4c1 0 1.7-0.8 1.7-1.7 0-1-0.8-1.7-1.7-1.7H2.2c-1 0-1.7 0.8-1.7 1.7C0.5 32.4 1.3 33.2 2.2 33.2z" data-fill-palette-color="accent"></path><path fill="#e92d0b" d="M8.4 38.8H3.2c-1 0-1.7 0.8-1.7 1.7 0 1 0.8 1.7 1.7 1.7h5.2c1 0 1.7-0.8 1.7-1.7C10.1 39.6 9.3 38.8 8.4 38.8z" data-fill-palette-color="accent"></path><path fill="#e92d0b" d="M5 47.9H2.2c-1 0-1.7 0.8-1.7 1.7 0 1 0.8 1.7 1.7 1.7H5c1 0 1.7-0.8 1.7-1.7C6.7 48.6 6 47.9 5 47.9z" data-fill-palette-color="accent"></path></g></svg></g><g transform="matrix(1,0,0,1,206.41391438035114,35.66317937500732)"><svg width="395.52" viewBox="1.56 -39.84 260.46 41.52" height="63.05928578123535" data-palette-color="#f9f9f9"><path d="M27.47-33.89L35.08-35.94Q35.21-35.96 35.31-35.97 35.42-35.99 35.52-35.99L35.52-35.99Q35.96-35.99 36.23-35.71 36.5-35.42 36.6-34.72L36.6-34.72Q36.65-34.28 36.76-33.48 36.87-32.69 37-31.73 37.13-30.76 37.29-29.74 37.45-28.71 37.57-27.84 37.7-26.98 37.79-26.35 37.89-25.73 37.92-25.56L37.92-25.56Q38.45-21.24 38.87-18.63 39.28-16.02 39.45-14.77L39.45-14.77 41.09-1.56 40.84-0.81Q40.8-0.63 40.21-0.39 39.62-0.15 38.79 0.13 37.96 0.42 36.99 0.68 36.01 0.95 35.18 1.17 34.35 1.39 33.78 1.53 33.2 1.66 33.18 1.66L33.18 1.66Q32.59 1.66 32.25 0.81 31.91-0.05 31.69-1.37 31.47-2.69 31.34-4.25 31.2-5.81 31.03-7.25L31.03-7.25Q30.88-8.45 30.76-9.67 30.64-10.89 30.49-12.16L30.49-12.16 29.54-19.29 20.48-2.71Q20.07-2.12 19.65-1.87 19.24-1.61 18.87-1.61L18.87-1.61Q18.33-1.61 18.03-1.93 17.72-2.25 17.6-2.71L17.6-2.71Q17.14-4.25 16.81-5.31 16.48-6.37 16.2-7.25 15.92-8.13 15.67-8.96 15.43-9.79 15.12-10.88 14.82-11.96 14.44-13.44 14.06-14.92 13.53-17.07L13.53-17.07 12.77-13.55 9.25 1.37Q9.18 1.66 8.64 1.66L8.64 1.66Q8.13 1.66 7.24 1.46 6.35 1.27 5.38 0.99 4.42 0.71 3.5 0.4 2.59 0.1 2.05-0.15L2.05-0.15Q1.93-0.2 1.75-0.38 1.56-0.56 1.56-0.95L1.56-0.95Q1.56-1.05 1.64-1.37 1.71-1.68 1.82-2.11 1.93-2.54 2.06-2.98 2.2-3.42 2.32-3.76L2.32-3.76Q2.64-4.59 2.89-5.71 3.15-6.84 3.37-7.98 3.59-9.13 3.77-10.18 3.96-11.23 4.13-11.94L4.13-11.94 7.13-25.95 8.03-29.91Q8.2-30.66 8.36-31.38 8.52-32.1 8.64-32.69 8.76-33.28 8.84-33.64 8.91-34.01 8.91-34.06L8.91-34.06 15.01-35.94Q15.36-35.94 15.61-35.88 15.87-35.82 15.94-35.47L15.94-35.47 20.8-19.85 27.47-33.89ZM57.81 1.27L57.81 1.27Q54.37 1.27 51.77 0.15 49.17-0.98 47.41-2.84 45.65-4.71 44.77-7.14 43.89-9.57 43.89-12.18L43.89-12.18Q43.89-14.79 44.75-17.15 45.6-19.51 47.14-21.37 48.68-23.24 50.83-24.5 52.98-25.76 55.56-26.2L55.56-26.2Q55.95-26.22 55.95-26.37L55.95-26.37Q55.95-26.64 55.89-26.87 55.83-27.1 55.83-27.27L55.83-27.27Q55.83-27.54 55.93-27.64 56.03-27.73 56.15-27.73L56.15-27.73Q60.81-27.73 64.08-26.67 67.36-25.61 69.41-23.78 71.46-21.95 72.39-19.46 73.31-16.97 73.31-14.11L73.31-14.11Q73.31-10.47 72.09-7.62 70.87-4.76 68.76-2.78 66.65-0.81 63.83 0.23 61.01 1.27 57.81 1.27ZM53.29-12.45L53.29-12.45Q53.29-11.13 53.57-9.84 53.85-8.54 54.5-7.5 55.15-6.45 56.2-5.8 57.25-5.15 58.81-5.15L58.81-5.15Q59.93-5.2 60.78-5.65 61.62-6.1 62.23-6.82 62.84-7.54 63.24-8.45 63.64-9.35 63.88-10.31 64.11-11.28 64.21-12.21 64.3-13.13 64.3-13.89L64.3-13.89Q64.3-15.16 63.93-16.38 63.55-17.6 62.81-18.53 62.08-19.46 61-20.03 59.91-20.61 58.49-20.61L58.49-20.61Q57.03-20.61 56.03-19.74 55.03-18.87 54.43-17.6 53.83-16.33 53.56-14.93 53.29-13.53 53.29-12.45ZM93.7-27L93.7-27Q93.79-27.25 94.06-27.25L94.06-27.25Q94.11-27.25 94.16-27.23 94.21-27.22 94.26-27.22L94.26-27.22Q96.09-26.51 98.02-26.06 99.95-25.61 101.85-25.2L101.85-25.2Q102.31-25.1 102.31-24.66L102.31-24.66Q102.31-24.34 102.02-23.68L102.02-23.68 91.96-2.29Q91.77-1.86 91.62-1.59 91.47-1.32 91.33-1.15 91.18-0.98 91.01-0.9 90.84-0.83 90.6-0.78L90.6-0.78Q88.74-0.42 86.84 0.06 84.93 0.54 82.88 1.25L82.88 1.25Q82.83 1.25 82.81 1.26 82.78 1.27 82.76 1.27L82.76 1.27 82.59 1.27Q82.47 1.27 82.39 1.18 82.32 1.1 82.29 1.03L82.29 1.03Q81.93-0.02 81.45-1.68 80.98-3.34 80.41-5.4 79.85-7.45 79.24-9.77 78.63-12.08 78-14.48 77.36-16.87 76.74-19.23 76.12-21.58 75.53-23.68L75.53-23.68Q75.31-24.44 75.31-24.76L75.31-24.76Q75.31-25.1 75.7-25.2L75.7-25.2Q77.61-25.61 79.66-26.06 81.71-26.51 83.54-27.22L83.54-27.22Q83.61-27.25 83.76-27.25L83.76-27.25Q84.08-27.25 84.1-27L84.1-27 87.32-10.6Q87.45-10.89 87.74-11.66 88.03-12.43 88.45-13.5 88.86-14.58 89.36-15.87 89.86-17.16 90.39-18.51 90.91-19.85 91.43-21.18 91.94-22.51 92.39-23.66 92.84-24.8 93.18-25.68 93.53-26.56 93.7-27ZM103.73-10.35L103.73-10.35Q104.05-13.7 104.36-16.97 104.68-20.24 104.92-23.68L104.92-23.68Q104.97-24.49 105.08-24.79 105.19-25.1 105.63-25.2L105.63-25.2Q107.71-25.61 109.98-26.06 112.25-26.51 114.37-27.22L114.37-27.22Q114.45-27.25 114.59-27.25L114.59-27.25Q114.86-27.25 114.86-27.05L114.86-27.05 112.66-3.27Q112.59-2.47 112.49-2.16 112.39-1.86 111.96-1.76L111.96-1.76Q109.88-1.12 107.76-0.34 105.63 0.44 103.26 1.25L103.26 1.25Q103.19 1.27 103.04 1.27L103.04 1.27Q102.78 1.27 102.78 1.03L102.78 1.03Q102.78 1 102.82 0.37 102.87-0.27 102.96-1.27 103.04-2.27 103.14-3.52 103.24-4.76 103.35-6.01 103.46-7.25 103.56-8.4 103.65-9.55 103.73-10.35ZM105.56-29.83L105.56-29.83Q105.63-30.88 105.67-31.45 105.71-32.01 105.73-32.29 105.75-32.57 105.75-32.64 105.75-32.71 105.77-32.75 105.78-32.79 105.79-32.9 105.8-33.01 105.83-33.36 105.85-33.72 105.9-34.4 105.95-35.08 106.05-36.28L106.05-36.28Q106.1-37.08 106.21-37.39 106.32-37.7 106.76-37.79L106.76-37.79Q108.83-38.21 111.1-38.66 113.37-39.11 115.5-39.82L115.5-39.82Q115.57-39.84 115.72-39.84L115.72-39.84Q115.79-39.7 115.91-39.65L115.91-39.65 115.98-39.6 115.45-32.91Q115.37-32.1 115.26-31.79 115.15-31.47 114.74-31.4L114.74-31.4Q112.66-31.01 110.54-30.54 108.42-30.08 106.05-29.61L106.05-29.61Q105.97-29.59 105.83-29.59L105.83-29.59Q105.56-29.59 105.56-29.83ZM132.58-27.25L132.58-27.25Q134.9-27.25 136.79-26.38 138.69-25.51 140.04-24.13 141.4-22.75 142.13-21.04 142.86-19.34 142.86-17.63L142.86-17.63Q142.86-16.11 141.93-14.59 141.01-13.06 139.33-11.84 137.66-10.62 135.32-9.86 132.97-9.11 130.17-9.11L130.17-9.11Q128.7-9.11 127.09-9.4L127.09-9.4Q127.19-8.35 127.7-7.59 128.21-6.84 128.99-6.35 129.78-5.86 130.76-5.63 131.75-5.4 132.8-5.4L132.8-5.4Q133.97-5.4 135.06-5.6 136.15-5.81 137.15-6.15 138.15-6.49 139.08-6.91 140-7.32 140.83-7.74L140.83-7.74Q141.05-7.79 141.21-7.82 141.37-7.86 141.52-7.86L141.52-7.86Q141.52-7.86 141.51-7.47 141.49-7.08 141.49-6.37 141.49-5.66 141.48-4.66 141.47-3.66 141.45-2.44L141.45-2.44Q141.52-2.32 141.54-2.2 141.57-2.08 141.57-2L141.57-2Q141.57-1.71 141.03-1.37 140.49-1.03 139.63-0.66 138.76-0.29 137.65 0.05 136.54 0.39 135.39 0.67 134.24 0.95 133.17 1.11 132.09 1.27 131.29 1.27L131.29 1.27Q128.65 1.27 126.17 0.35 123.7-0.56 121.78-2.27 119.86-3.98 118.72-6.42 117.57-8.86 117.57-11.91L117.57-11.91Q117.57-15.11 118.67-17.91 119.77-20.7 121.76-22.78 123.74-24.85 126.5-26.05 129.26-27.25 132.58-27.25ZM132.29-20.75L132.29-20.75Q131.29-20.75 130.45-20.32 129.6-19.9 128.91-19.1 128.21-18.31 127.7-17.2 127.19-16.09 126.87-14.75L126.87-14.75Q129.38-15.19 131.04-15.67 132.7-16.16 133.71-16.66 134.71-17.16 135.12-17.66 135.54-18.16 135.54-18.63L135.54-18.63Q135.54-19.07 135.21-19.46 134.88-19.85 134.39-20.14 133.9-20.43 133.33-20.59 132.75-20.75 132.29-20.75ZM146.35-0.07L146.03-6.74Q146.03-6.76 146.02-6.77 146.01-6.79 146.01-6.81L146.01-6.81Q146.01-7.13 146.35-7.13L146.35-7.13Q146.57-7.13 146.74-6.96L146.74-6.96Q147.72-6.03 148.97-5.44 150.23-4.86 151.7-4.86L151.7-4.86Q152.09-4.86 152.6-4.94 153.11-5.03 153.58-5.22 154.04-5.42 154.35-5.75 154.65-6.08 154.65-6.57L154.65-6.57Q154.65-7.1 154.38-7.56 154.11-8.01 153.67-8.3L153.67-8.3Q153.43-8.47 152.82-8.9 152.21-9.33 151.51-9.81 150.82-10.3 150.2-10.74 149.57-11.18 149.33-11.38L149.33-11.38Q148.23-12.21 147.58-13.06 146.94-13.92 146.59-14.83 146.25-15.75 146.15-16.75 146.06-17.75 146.06-18.87L146.06-18.87Q146.06-20.58 146.96-22.09 147.86-23.61 149.34-24.76 150.82-25.9 152.7-26.57 154.58-27.25 156.53-27.25L156.53-27.25Q158.14-27.25 159.7-26.76 161.27-26.27 162.61-25.1L162.61-25.1Q162.73-23.56 162.78-22.07 162.83-20.58 162.93-18.95L162.93-18.95Q162.93-18.63 162.78-18.52 162.63-18.41 162.44-18.41L162.44-18.41Q162.27-18.41 162.15-18.53L162.15-18.53Q161.58-19.07 161-19.59 160.41-20.12 159.77-20.52 159.12-20.92 158.39-21.18 157.65-21.44 156.82-21.44L156.82-21.44Q156.31-21.44 155.8-21.35 155.29-21.26 154.87-21.03 154.46-20.8 154.2-20.41 153.94-20.02 153.94-19.41L153.94-19.41Q153.94-18.7 154.11-18.19 154.28-17.68 154.92-17.19L154.92-17.19 159.46-14.11Q160.71-13.26 161.47-12.44 162.24-11.62 162.68-10.82 163.12-10.01 163.28-9.22 163.44-8.42 163.44-7.64L163.44-7.64Q163.44-5.44 162.43-3.77 161.41-2.1 159.8-0.99 158.19 0.12 156.15 0.7 154.11 1.27 152.06 1.27L152.06 1.27Q150.5 1.27 149.05 0.94 147.59 0.61 146.35-0.07L146.35-0.07ZM188.93-32.15L188.93-32.15Q188.93-33.03 189.08-33.36 189.24-33.69 189.73-33.81L189.73-33.81 198.13-35.84Q198.45-35.94 198.79-35.94L198.79-35.94Q199.13-35.94 199.25-35.73 199.37-35.52 199.37-34.89L199.37-34.89 199.08-31.05Q198.96-29.37 198.81-27.71 198.67-26.05 198.37-24.8L198.37-24.8 197.93-21.34Q197.74-19.8 197.57-18.01 197.4-16.21 197.2-13.99L197.2-13.99 196.05-1.95Q196.03-1.73 195.96-1.51 195.88-1.29 195.64-1.2L195.64-1.2Q195.47-1.12 194.85-0.88 194.22-0.63 193.37-0.32 192.51 0 191.54 0.35 190.56 0.71 189.68 1 188.8 1.29 188.12 1.49 187.44 1.68 187.19 1.68L187.19 1.68Q186.85 1.68 186.59 1.5 186.34 1.32 186.34 0.81L186.34 0.81Q186.34-2.15 186.68-5.24 187.02-8.33 187.29-11.38L187.29-11.38Q187.34-11.72 187.33-12.01 187.31-12.3 187.36-12.65L187.36-12.65 178.43-12.65 177.43-1.95Q177.4-1.73 177.34-1.53 177.28-1.32 177.01-1.2L177.01-1.2Q176.91-1.15 176.05-0.84 175.18-0.54 174.05-0.13 172.91 0.27 171.8 0.67 170.69 1.07 170.1 1.29L170.1 1.29Q169.81 1.42 169.38 1.55 168.95 1.68 168.54 1.68L168.54 1.68Q168.2 1.68 167.94 1.49 167.69 1.29 167.69 0.78L167.69 0.78Q167.69-0.39 167.77-1.89 167.86-3.39 167.98-5.04 168.1-6.69 168.27-8.42 168.44-10.16 168.61-11.84L168.61-11.84 168.66-12.55Q166.68-12.55 165.79-12.66 164.9-12.77 164.9-13.23L164.9-13.23Q164.9-13.55 165.27-14.06L165.27-14.06Q165.76-14.75 166.4-15.71 167.05-16.67 167.65-17.61 168.25-18.55 168.72-19.3 169.2-20.04 169.35-20.26L169.35-20.26 169.91-26.15Q169.91-26.2 169.96-26.88 170-27.56 170.08-28.5 170.15-29.44 170.24-30.44 170.32-31.45 170.4-32.15L170.4-32.15Q170.44-33.01 170.53-33.35 170.61-33.69 171.1-33.81L171.1-33.81 179.4-35.84Q179.72-35.94 180.06-35.94L180.06-35.94Q180.4-35.94 180.53-35.73 180.65-35.52 180.65-34.89L180.65-34.89Q180.48-33.13 180.38-31.69 180.28-30.25 180.17-29 180.06-27.76 179.94-26.64 179.82-25.51 179.6-24.34L179.6-24.34 179.11-20.56 187.97-20.65Q188.19-23.9 188.46-26.17 188.73-28.44 188.8-29.76L188.8-29.76Q188.88-31.01 188.9-31.54 188.93-32.08 188.93-32.15ZM229.84-27L227.55-3.03Q227.47-2.22 227.35-1.92 227.23-1.61 226.81-1.51L226.81-1.51Q224.74-0.93 222.48-0.33 220.22 0.27 218.1 1.25L218.1 1.25Q218.02 1.27 217.88 1.27L217.88 1.27Q217.68 1.27 217.65 1.17 217.61 1.07 217.61 0.95L217.61 0.95Q217.61 0.9 217.62 0.78 217.63 0.66 217.68 0.33 217.73 0 217.82-0.59 217.9-1.17 218.05-2.15L218.05-2.15Q215.31-0.37 213.2 0.45 211.09 1.27 209.46 1.27L209.46 1.27Q205.38 1.27 203.51-0.7 201.64-2.66 201.64-6.57L201.64-6.57Q201.64-7.28 201.67-8.02 201.69-8.76 201.81-9.55L201.81-9.55Q202.08-12.43 202.28-14.49 202.47-16.55 202.59-17.99 202.72-19.43 202.8-20.35 202.89-21.26 202.95-21.88 203.01-22.49 203.05-22.89 203.08-23.29 203.13-23.68L203.13-23.68Q203.23-24.46 203.32-24.78 203.4-25.1 203.86-25.2L203.86-25.2Q205.01-25.42 206.05-25.6 207.09-25.78 208.1-25.99 209.11-26.2 210.16-26.44 211.21-26.68 212.38-27.03L212.38-27.03Q212.43-27.03 212.48-27.04 212.53-27.05 212.58-27.05L212.58-27.05Q212.87-27.05 212.87-26.86L212.87-26.86 212.87-26.81Q212.78-25.98 212.7-25.24 212.63-24.51 212.56-23.74 212.48-22.97 212.4-22.09 212.31-21.22 212.19-20.06 212.07-18.9 211.9-17.38 211.73-15.87 211.48-13.87L211.48-13.87Q211.34-12.4 211.19-10.95 211.04-9.5 211.04-8.25L211.04-8.25Q211.04-7.57 211.14-6.99 211.24-6.42 211.49-6.02 211.75-5.62 212.17-5.4 212.58-5.18 213.24-5.18L213.24-5.18Q213.75-5.18 214.63-5.41 215.51-5.64 216.39-6.21 217.27-6.79 217.94-7.73 218.61-8.67 218.71-10.11L218.71-10.11Q218.88-12.52 219.01-14.15 219.15-15.77 219.25-16.88 219.34-17.99 219.42-18.75 219.49-19.51 219.55-20.2 219.61-20.9 219.66-21.69 219.71-22.49 219.76-23.68L219.76-23.68Q219.83-24.49 219.94-24.79 220.05-25.1 220.49-25.2L220.49-25.2Q222.71-25.63 225.03-26.09 227.35-26.54 229.57-27.25L229.57-27.25Q229.77-27.25 229.8-27.19 229.84-27.12 229.84-27L229.84-27ZM244.1-17.43L243.29-7.96Q243.53-7.47 243.99-6.97 244.44-6.47 245.04-6.05 245.63-5.64 246.34-5.38 247.05-5.13 247.81-5.13L247.81-5.13Q248.86-5.13 249.78-5.94 250.71-6.76 251.41-8.14 252.1-9.52 252.49-11.29 252.89-13.06 252.89-14.97L252.89-14.97Q252.89-16.14 252.68-17.19 252.47-18.24 252.03-19.02 251.59-19.8 250.9-20.26 250.2-20.73 249.22-20.73L249.22-20.73Q247.64-20.73 246.32-19.8 245-18.87 244.1-17.43L244.1-17.43ZM234.21 1.2L234.21 1.2Q233.87 1.27 233.67 1.27L233.67 1.27Q232.89 1.27 232.89 0.34L232.89 0.34Q232.89 0.22 232.9 0.1 232.91-0.02 232.94-0.17L232.94-0.17 235.77-34.72Q235.77-34.79 235.78-34.86 235.8-34.94 235.8-34.99L235.8-34.99Q235.8-35.08 235.78-35.16 235.77-35.23 235.77-35.28L235.77-35.28Q235.77-35.5 235.93-35.63 236.09-35.77 236.75-35.94L236.75-35.94 243.61-37.57Q243.88-37.62 244.32-37.79 244.76-37.96 245.17-37.96L245.17-37.96Q245.49-37.96 245.77-37.82 246.05-37.67 246.05-37.26L246.05-37.26Q246.05-37.21 246.04-37.16 246.02-37.11 246.02-37.06L246.02-37.06Q246-36.94 245.9-35.99 245.81-35.03 245.68-33.68 245.56-32.32 245.41-30.77 245.27-29.22 245.15-27.87 245.02-26.51 244.93-25.56 244.83-24.61 244.8-24.49L244.8-24.49Q246.59-25.66 248.49-26.45 250.4-27.25 252.3-27.25L252.3-27.25Q254.81-27.25 256.65-26.21 258.48-25.17 259.67-23.45 260.87-21.73 261.44-19.48 262.02-17.24 262.02-14.84L262.02-14.84Q262.02-12.92 261.66-10.97 261.31-9.03 260.64-7.25 259.97-5.47 258.95-3.91 257.94-2.34 256.63-1.2 255.33-0.05 253.72 0.61 252.1 1.27 250.22 1.27L250.22 1.27Q247.95 1.27 246.07 0.27 244.19-0.73 242.58-2.32L242.58-2.32Q242.53-1.73 242.51-1.39 242.48-1.05 242.35-0.87 242.22-0.68 241.95-0.57 241.68-0.46 241.14-0.34L241.14-0.34Q240.87-0.27 240.2-0.11 239.53 0.05 238.59 0.26 237.65 0.46 236.52 0.71 235.38 0.95 234.21 1.2Z" opacity="1" transform="matrix(1,0,0,1,0,0)" fill="#f9f9f9" class="wordmark-text-0" data-fill-palette-color="primary"></path></svg></g></svg></g></svg></g><g transform="matrix(1,0,0,1,190.85814073953685,149.2724284813409)"><svg viewBox="0 0 220.2176329012774 31.529642890617673" height="31.529642890617673" width="220.2176329012774"><g transform="matrix(1,0,0,1,0,0)"><svg width="220.2176329012774" viewBox="0.78 -33.89 241.43 34.57" height="31.529642890617673" data-palette-color="#3d4a5c"><path d="M7.13-32.08L7.13-32.08Q7.37-32.08 12.26-32.32L12.26-32.32Q12.35-32.13 12.33-31.52 12.3-30.91 12.16-30.91L12.16-30.91Q11.82-30.91 11.33-30.83 10.84-30.76 10.28-30.4 9.72-30.03 9.72-29.49L9.72-29.49Q9.72-28.03 10.84-25.88L10.84-25.88 20.95-5.86Q21.09-5.62 21.34-5.74 21.58-5.86 21.68-6.1L21.68-6.1 25.73-14.55 20.61-25.1Q19.19-27.98 17.77-29.79L17.77-29.79Q17.38-30.27 16.46-30.59 15.53-30.91 14.94-30.91L14.94-30.91Q14.75-30.91 14.75-31.64L14.75-31.64Q14.75-32.13 14.94-32.32L14.94-32.32Q20.56-32.08 21.09-32.08L21.09-32.08Q21.29-32.08 26.17-32.32L26.17-32.32Q26.27-32.13 26.25-31.52 26.22-30.91 26.07-30.91L26.07-30.91Q25.73-30.91 25.27-30.83 24.8-30.76 24.24-30.42 23.68-30.08 23.68-29.49L23.68-29.49Q23.68-28.22 24.8-25.88L24.8-25.88 28.03-19.29 31.45-26.46Q32.13-27.98 32.13-29.3L32.13-29.3Q32.13-30.13 31.08-30.52 30.03-30.91 29.25-30.91L29.25-30.91Q29.05-30.91 29.05-31.52 29.05-32.13 29.25-32.32L29.25-32.32Q33.15-32.08 34.18-32.08L34.18-32.08Q34.38-32.08 39.26-32.32L39.26-32.32Q39.36-32.13 39.33-31.52 39.31-30.91 39.16-30.91L39.16-30.91Q38.67-30.91 37.48-30.52 36.28-30.13 35.79-29.54L35.79-29.54Q34.91-28.47 32.96-24.51L32.96-24.51 29.2-16.8 34.52-5.86Q34.81-5.32 35.11-6.1L35.11-6.1 43.85-26.17Q44.68-28.17 44.68-29.25L44.68-29.25Q44.68-30.08 43.68-30.49 42.68-30.91 41.89-30.91L41.89-30.91Q41.7-30.91 41.7-31.52 41.7-32.13 41.89-32.32L41.89-32.32Q45.8-32.08 46.88-32.08L46.88-32.08Q48-32.08 48.73-32.13 49.46-32.18 50.24-32.23 51.03-32.28 51.71-32.32L51.71-32.32Q51.81-32.03 51.81-31.59L51.81-31.59Q51.81-30.91 51.61-30.91L51.61-30.91Q51.12-30.91 50.05-30.54 48.97-30.18 48.44-29.54L48.44-29.54Q47.02-27.88 45.61-24.61L45.61-24.61 35.25-1.17Q34.52 0.39 33.35 0.39L33.35 0.39Q33.06 0.39 32.91 0.15L32.91 0.15 26.95-12.06 21.68-1.17Q20.95 0.39 19.78 0.39L19.78 0.39Q19.48 0.39 19.34 0.15L19.34 0.15 6.64-25.1Q5.22-27.98 3.81-29.79L3.81-29.79Q3.42-30.27 2.49-30.59 1.56-30.91 0.98-30.91L0.98-30.91Q0.78-30.91 0.78-31.54L0.78-31.54Q0.78-32.13 0.98-32.32L0.98-32.32Q6.59-32.08 7.13-32.08ZM59.37-3.15Q60.2-2.44 61.52-2.44 62.84-2.44 64.06-3.25 65.28-4.05 65.28-4.88L65.28-4.88 65.28-9.91Q64.89-9.72 63.38-9.23 61.86-8.74 61.01-8.37 60.15-8.01 59.35-7.15 58.54-6.3 58.54-5.18L58.54-5.18Q58.54-3.86 59.37-3.15ZM63.96-21.29L63.96-21.29Q66.65-21.29 67.82-20 68.99-18.7 68.99-15.82L68.99-15.82 68.99-4.54Q68.99-3.52 69.53-2.83 70.07-2.15 70.99-2.15L70.99-2.15Q71.68-2.15 72.7-2.83L72.7-2.83Q72.9-2.83 72.9-2.44L72.9-2.44Q72.9-1.81 72.65-1.42L72.65-1.42Q70.65 0.29 69.24 0.29L69.24 0.29Q68.11 0.29 67.09-0.63 66.06-1.56 65.67-2.59L65.67-2.59Q65.62-2.59 65.31-2.27 64.99-1.95 64.45-1.54 63.91-1.12 63.21-0.68 62.5-0.24 61.55 0.05 60.59 0.34 59.62 0.34L59.62 0.34Q57.37 0.34 55.91-0.85 54.44-2.05 54.44-4.44L54.44-4.44Q54.44-5.52 54.98-6.47 55.52-7.42 56.25-8.03 56.98-8.64 58.25-9.28 59.52-9.91 60.42-10.23 61.33-10.55 62.79-11.04 64.26-11.52 64.84-11.77L64.84-11.77Q65.28-11.91 65.28-12.5L65.28-12.5 65.28-16.16Q65.28-17.72 64.3-18.58 63.33-19.43 61.96-19.43L61.96-19.43Q60.5-19.43 59.52-18.43 58.54-17.43 58.54-15.82L58.54-15.82Q58.54-14.11 56.54-14.11L56.54-14.11Q55.17-14.11 54.64-15.04L54.64-15.04Q54.64-17.14 57.71-19.21 60.79-21.29 63.96-21.29ZM77.09-5.86L77.09-18.26 74.26-18.26Q74.02-18.26 74.02-19.29L74.02-19.29Q74.02-19.58 74.07-19.63L74.07-19.63Q75.48-20.26 77.14-22.22L77.14-22.22Q77.68-22.85 78.19-23.66 78.71-24.46 79.05-25.05 79.39-25.63 79.39-25.68L79.39-25.68Q80.85-25.68 80.85-25.44L80.85-25.44 80.85-20.61Q82.12-20.61 84.71-20.58 87.3-20.56 87.45-20.56L87.45-20.56Q87.84-20.56 87.84-20.12L87.84-20.12Q87.84-19.24 87.35-18.26L87.35-18.26 80.85-18.26 80.85-6.3Q80.85-4.35 81.86-3.17 82.86-2 84.47-2L84.47-2Q85.93-2 87.5-2.93L87.5-2.93Q87.64-3.03 87.93-2.51 88.23-2 88.18-1.95L88.18-1.95Q87.45-1.17 85.93-0.42 84.42 0.34 82.81 0.34L82.81 0.34Q80.37 0.34 78.73-1.27 77.09-2.88 77.09-5.86L77.09-5.86ZM99.8-21.29L99.8-21.29Q105.17-21.29 107.22-18.8L107.22-18.8Q107.22-15.53 105.41-15.53L105.41-15.53Q104.58-15.53 104.14-15.89 103.7-16.26 103.02-17.24L103.02-17.24Q101.51-19.48 99.41-19.48L99.41-19.48Q97.4-19.48 95.77-17.58 94.13-15.67 94.13-11.91L94.13-11.91Q94.13-8.01 96.06-5.42 97.99-2.83 101.41-2.83L101.41-2.83Q102.43-2.83 103.36-3.03 104.29-3.22 104.95-3.49 105.61-3.76 106.07-4.03 106.54-4.3 106.88-4.54L106.88-4.54 107.22-4.79Q107.51-4.79 107.51-4.15L107.51-4.15Q107.51-3.76 107.22-3.27L107.22-3.27Q106.24-1.9 104.34-0.81 102.43 0.29 100.19 0.29L100.19 0.29Q96.14 0.29 93.23-2.76 90.32-5.81 90.32-10.21L90.32-10.21Q90.32-14.7 92.77-17.99 95.21-21.29 99.8-21.29ZM123.53-21.39L123.53-21.39Q126.8-21.39 128.21-19.04 129.63-16.7 129.63-11.82L129.63-11.82 129.63-6.54Q129.63-3.76 130.02-2.25L130.02-2.25Q130.12-1.9 131.29-1.59 132.46-1.27 132.95-1.27L132.95-1.27Q133.1-1.27 133.14-0.68 133.19-0.1 133.1 0.15L133.1 0.15Q128.21-0.1 127.87-0.1L127.87-0.1Q127.72-0.1 122.74 0.15L122.74 0.15Q122.55-0.05 122.55-0.66 122.55-1.27 122.74-1.27L122.74-1.27Q123.33-1.27 124.38-1.59 125.43-1.9 125.53-2.25L125.53-2.25Q125.87-3.66 125.87-5.66L125.87-5.66 125.87-10.84Q125.87-15.33 124.62-16.87 123.38-18.41 120.79-18.41L120.79-18.41Q119.33-18.41 117.89-17.26 116.45-16.11 116.45-15.23L116.45-15.23 116.45-6.59Q116.45-3.76 116.84-2.25L116.84-2.25Q116.93-1.9 118.11-1.59 119.28-1.27 119.77-1.27L119.77-1.27Q119.91-1.27 119.96-0.68 120.01-0.1 119.91 0.15L119.91 0.15Q115.03-0.1 114.69-0.1L114.69-0.1Q114.39-0.1 109.37 0.15L109.37 0.15Q109.17-0.05 109.17-0.66 109.17-1.27 109.37-1.27L109.37-1.27Q109.95-1.27 111.1-1.59 112.25-1.9 112.34-2.25L112.34-2.25Q112.69-3.66 112.69-5.62L112.69-5.62 112.69-26.81Q112.69-28.47 112.39-29.93L112.39-29.93Q112.15-30.71 109.9-30.71L109.9-30.71 109.46-30.71Q109.17-30.71 109.17-31.25L109.17-31.25Q109.17-32.03 109.46-32.03L109.46-32.03Q110.93-32.18 112.17-32.42 113.42-32.67 114.13-32.91 114.83-33.15 115.32-33.37 115.81-33.59 116.01-33.74L116.01-33.74 116.25-33.89 116.35-33.89Q116.54-33.89 116.74-33.62 116.93-33.35 116.98-33.11L116.98-33.11Q116.45-31.54 116.45-28.86L116.45-28.86 116.45-18.16Q116.45-17.97 116.54-17.97L116.54-17.97Q116.59-17.97 116.69-18.07L116.69-18.07Q117.76-19.24 119.74-20.31 121.72-21.39 123.53-21.39ZM161.07-21.39L161.07-21.39Q164.49-21.39 165.85-18.95 167.22-16.5 167.22-11.04L167.22-11.04 167.22-6.59Q167.22-3.76 167.61-2.25L167.61-2.25Q167.71-1.9 168.88-1.59 170.05-1.27 170.54-1.27L170.54-1.27Q170.69-1.27 170.74-0.68 170.79-0.1 170.69 0.15L170.69 0.15Q165.81-0.1 165.46-0.1L165.46-0.1Q165.37-0.1 160.34 0.15L160.34 0.15Q160.14-0.05 160.14-0.66 160.14-1.27 160.34-1.27L160.34-1.27Q160.92-1.27 161.97-1.59 163.02-1.9 163.12-2.25L163.12-2.25Q163.46-3.66 163.46-5.66L163.46-5.66 163.46-10.55Q163.46-15.09 162.29-16.75 161.12-18.41 158.48-18.41L158.48-18.41Q156.92-18.41 155.48-17.26 154.04-16.11 154.04-15.19L154.04-15.19 154.04-6.59Q154.04-3.76 154.43-2.25L154.43-2.25Q154.53-1.9 155.7-1.59 156.87-1.27 157.36-1.27L157.36-1.27Q157.5-1.27 157.55-0.68 157.6-0.1 157.5 0.15L157.5 0.15Q152.62-0.1 152.28-0.1L152.28-0.1Q151.99-0.1 146.96 0.15L146.96 0.15Q146.76-0.05 146.76-0.66 146.76-1.27 146.96-1.27L146.96-1.27Q147.54-1.27 148.69-1.59 149.84-1.9 149.94-2.25L149.94-2.25Q150.28-3.66 150.28-5.66L150.28-5.66 150.28-14.89Q150.28-16.8 149.59-17.53L149.59-17.53Q149.11-18.12 148.4-18.33 147.69-18.55 147.23-18.55 146.76-18.55 146.76-18.65L146.76-18.65Q146.76-19.82 147.06-19.87L147.06-19.87Q152.23-20.65 153.79-21.14L153.79-21.14Q153.84-21.14 153.94-21.17 154.04-21.19 154.04-21.19L154.04-21.19Q154.23-21.19 154.28-20.78 154.33-20.36 154.28-20.17L154.28-20.17Q154.09-18.8 154.09-18.21L154.09-18.21Q154.09-18.02 154.18-18.02L154.18-18.02Q154.23-18.02 154.33-18.12L154.33-18.12Q155.45-19.29 157.38-20.34 159.31-21.39 161.07-21.39ZM183.72-19.43L183.72-19.43Q181.13-19.43 179.5-17.07 177.86-14.7 177.86-11.28L177.86-11.28Q177.86-7.28 179.94-4.42 182.01-1.56 184.8-1.56L184.8-1.56Q187.38-1.56 189.05-4 190.71-6.45 190.71-9.86L190.71-9.86Q190.71-13.82 188.61-16.63 186.51-19.43 183.72-19.43ZM184.26-21.34L184.26-21.34Q188.65-21.34 191.78-18.16 194.9-14.99 194.9-10.55L194.9-10.55Q194.9-6.05 191.85-2.86 188.8 0.34 184.36 0.34 179.91 0.34 176.79-2.86 173.66-6.05 173.66-10.55L173.66-10.55Q173.66-15.09 176.69-18.21 179.72-21.34 184.26-21.34ZM227.18-18.07L227.18-18.07Q227.18-19.78 223.95-19.78L223.95-19.78 223.76-19.78Q223.56-19.78 223.56-20.39 223.56-21 223.76-21.19L223.76-21.19Q224.49-21.14 225.4-21.09 226.3-21.04 227.06-21 227.81-20.95 228.69-20.95L228.69-20.95Q229.52-20.95 230.13-21 230.74-21.04 231.52-21.09 232.3-21.14 233.04-21.19L233.04-21.19Q233.13-20.9 233.13-20.46L233.13-20.46Q233.13-19.78 232.89-19.78L232.89-19.78Q232.26-19.78 231.18-19.36 230.11-18.95 229.77-18.02L229.77-18.02 223.37-0.54Q222.98 0.54 222 0.54L222 0.54Q221.51 0.54 221.42 0.34L221.42 0.34 215.41-14.01 210.48-0.54Q210.43-0.39 210.28-0.17 210.14 0.05 209.82 0.29 209.5 0.54 209.16 0.54L209.16 0.54Q208.67 0.54 208.57 0.34L208.57 0.34Q207.4-2.29 205.91-5.98 204.42-9.67 203.11-12.62 201.79-15.58 200.03-18.7L200.03-18.7Q199.39-19.78 197.39-19.78L197.39-19.78Q197.2-19.78 197.2-20.41L197.2-20.41Q197.2-21 197.39-21.19L197.39-21.19Q198.12-21.14 199-21.09 199.88-21.04 200.61-21 201.35-20.95 202.23-20.95L202.23-20.95 207.11-21.19Q207.21-21 207.18-20.39 207.16-19.78 207.01-19.78L207.01-19.78Q204.57-19.78 204.57-18.65L204.57-18.65Q204.57-18.51 205.18-17.19 205.79-15.87 207.3-12.62 208.82-9.38 210.38-5.86L210.38-5.86Q211.21-8.25 212.24-11.13 213.26-14.01 213.68-15.23 214.09-16.46 214.09-16.65L214.09-16.65Q214.09-16.89 213.87-17.43 213.65-17.97 213.41-18.36L213.41-18.36 213.16-18.8Q212.87-19.24 212.24-19.53L212.24-19.53Q211.75-19.78 210.67-19.78L210.67-19.78Q210.48-19.78 210.48-20.39 210.48-21 210.67-21.19L210.67-21.19Q211.41-21.14 212.26-21.09 213.11-21.04 213.82-21 214.53-20.95 215.41-20.95L215.41-20.95Q216.24-20.95 216.95-21 217.66-21.04 218.58-21.09 219.51-21.14 220.19-21.19L220.19-21.19Q220.29-20.9 220.29-20.36 220.29-19.82 220.15-19.78L220.15-19.78Q217.8-19.78 217.8-17.87L217.8-17.87Q217.8-16.85 223.17-5.86L223.17-5.86Q223.91-8.11 225.03-11.28 226.15-14.45 226.66-15.99 227.18-17.53 227.18-18.07ZM239.53-31.35L239.53-31.35Q240.6-31.35 241.16-30.44 241.73-29.54 241.73-28.27L241.73-28.27Q241.73-27.78 241.51-25.68 241.29-23.58 240.92-18.97 240.55-14.36 240.21-8.84L240.21-8.84Q240.16-8.11 239.97-7.84 239.77-7.57 239.04-7.23L239.04-7.23Q238.8-7.13 238.62-7.47 238.45-7.81 238.41-8.3L238.41-8.3Q238.01-14.65 237.65-19.31 237.28-23.97 237.14-25.61 236.99-27.25 236.99-28.27L236.99-28.27Q236.99-29.49 237.7-30.42 238.41-31.35 239.53-31.35ZM237.43-0.17Q236.6-1.03 236.6-2.2 236.6-3.37 237.43-4.17 238.26-4.98 239.43-4.98 240.6-4.98 241.41-4.17 242.21-3.37 242.21-2.2 242.21-1.03 241.41-0.17 240.6 0.68 239.43 0.68 238.26 0.68 237.43-0.17Z" opacity="1" transform="matrix(1,0,0,1,0,0)" fill="#3d4a5c" class="slogan-text-1" data-fill-palette-color="secondary" id="text-1"></path></svg></g></svg></g></svg></g></svg></g></svg></g><defs></defs></svg><rect width="395.52" height="118.80180458456552" fill="none" stroke="none" visibility="hidden"></rect></g></svg></g></svg>