<svg xmlns="http://www.w3.org/2000/svg" version="1.1" xmlns:xlink="http://www.w3.org/1999/xlink" xmlns:svgjs="http://svgjs.dev/svgjs" width="1500" height="1500" viewBox="0 0 1500 1500"><rect width="1500" height="1500" fill="#000000"></rect><g transform="matrix(0.6666666666666666,0,0,0.6666666666666666,249.39393939393943,632.3811813294254)"><svg viewBox="0 0 396 93" data-background-color="#000000" preserveAspectRatio="xMidYMid meet" height="352" width="1500" xmlns="http://www.w3.org/2000/svg" xmlns:xlink="http://www.w3.org/1999/xlink"><g id="tight-bounds" transform="matrix(1,0,0,1,0.2400000000000091,0.11313978563961768)"><svg viewBox="0 0 395.52 92.77372042872076" height="92.77372042872076" width="395.52"><g><svg viewBox="0 0 614.9270965850853 144.23815367776518" height="92.77372042872076" width="395.52"><g transform="matrix(1,0,0,1,219.4070965850853,20.451184962506993)"><svg viewBox="0 0 395.52 103.3357837527512" height="103.3357837527512" width="395.52"><g id="textblocktransform"><svg viewBox="0 0 395.52 103.3357837527512" height="103.3357837527512" width="395.52" id="textblock"><g><svg viewBox="0 0 395.52 63.05928578123535" height="63.05928578123535" width="395.52"><g transform="matrix(1,0,0,1,0,0)"><svg width="395.52" viewBox="1.56 -39.84 260.46 41.52" height="63.05928578123535" data-palette-color="#ffffff"><path d="M27.47-33.89L35.08-35.94Q35.21-35.96 35.31-35.97 35.42-35.99 35.52-35.99L35.52-35.99Q35.96-35.99 36.23-35.71 36.5-35.42 36.6-34.72L36.6-34.72Q36.65-34.28 36.76-33.48 36.87-32.69 37-31.73 37.13-30.76 37.29-29.74 37.45-28.71 37.57-27.84 37.7-26.98 37.79-26.35 37.89-25.73 37.92-25.56L37.92-25.56Q38.45-21.24 38.87-18.63 39.28-16.02 39.45-14.77L39.45-14.77 41.09-1.56 40.84-0.81Q40.8-0.63 40.21-0.39 39.62-0.15 38.79 0.13 37.96 0.42 36.99 0.68 36.01 0.95 35.18 1.17 34.35 1.39 33.78 1.53 33.2 1.66 33.18 1.66L33.18 1.66Q32.59 1.66 32.25 0.81 31.91-0.05 31.69-1.37 31.47-2.69 31.34-4.25 31.2-5.81 31.03-7.25L31.03-7.25Q30.88-8.45 30.76-9.67 30.64-10.89 30.49-12.16L30.49-12.16 29.54-19.29 20.48-2.71Q20.07-2.12 19.65-1.87 19.24-1.61 18.87-1.61L18.87-1.61Q18.33-1.61 18.03-1.93 17.72-2.25 17.6-2.71L17.6-2.71Q17.14-4.25 16.81-5.31 16.48-6.37 16.2-7.25 15.92-8.13 15.67-8.96 15.43-9.79 15.12-10.88 14.82-11.96 14.44-13.44 14.06-14.92 13.53-17.07L13.53-17.07 12.77-13.55 9.25 1.37Q9.18 1.66 8.64 1.66L8.64 1.66Q8.13 1.66 7.24 1.46 6.35 1.27 5.38 0.99 4.42 0.71 3.5 0.4 2.59 0.1 2.05-0.15L2.05-0.15Q1.93-0.2 1.75-0.38 1.56-0.56 1.56-0.95L1.56-0.95Q1.56-1.05 1.64-1.37 1.71-1.68 1.82-2.11 1.93-2.54 2.06-2.98 2.2-3.42 2.32-3.76L2.32-3.76Q2.64-4.59 2.89-5.71 3.15-6.84 3.37-7.98 3.59-9.13 3.77-10.18 3.96-11.23 4.13-11.94L4.13-11.94 7.13-25.95 8.03-29.91Q8.2-30.66 8.36-31.38 8.52-32.1 8.64-32.69 8.76-33.28 8.84-33.64 8.91-34.01 8.91-34.06L8.91-34.06 15.01-35.94Q15.36-35.94 15.61-35.88 15.87-35.82 15.94-35.47L15.94-35.47 20.8-19.85 27.47-33.89ZM57.81 1.27L57.81 1.27Q54.37 1.27 51.77 0.15 49.17-0.98 47.41-2.84 45.65-4.71 44.77-7.14 43.89-9.57 43.89-12.18L43.89-12.18Q43.89-14.79 44.75-17.15 45.6-19.51 47.14-21.37 48.68-23.24 50.83-24.5 52.98-25.76 55.56-26.2L55.56-26.2Q55.95-26.22 55.95-26.37L55.95-26.37Q55.95-26.64 55.89-26.87 55.83-27.1 55.83-27.27L55.83-27.27Q55.83-27.54 55.93-27.64 56.03-27.73 56.15-27.73L56.15-27.73Q60.81-27.73 64.08-26.67 67.36-25.61 69.41-23.78 71.46-21.95 72.39-19.46 73.31-16.97 73.31-14.11L73.31-14.11Q73.31-10.47 72.09-7.62 70.87-4.76 68.76-2.78 66.65-0.81 63.83 0.23 61.01 1.27 57.81 1.27ZM53.29-12.45L53.29-12.45Q53.29-11.13 53.57-9.84 53.85-8.54 54.5-7.5 55.15-6.45 56.2-5.8 57.25-5.15 58.81-5.15L58.81-5.15Q59.93-5.2 60.78-5.65 61.62-6.1 62.23-6.82 62.84-7.54 63.24-8.45 63.64-9.35 63.88-10.31 64.11-11.28 64.21-12.21 64.3-13.13 64.3-13.89L64.3-13.89Q64.3-15.16 63.93-16.38 63.55-17.6 62.81-18.53 62.08-19.46 61-20.03 59.91-20.61 58.49-20.61L58.49-20.61Q57.03-20.61 56.03-19.74 55.03-18.87 54.43-17.6 53.83-16.33 53.56-14.93 53.29-13.53 53.29-12.45ZM93.7-27L93.7-27Q93.79-27.25 94.06-27.25L94.06-27.25Q94.11-27.25 94.16-27.23 94.21-27.22 94.26-27.22L94.26-27.22Q96.09-26.51 98.02-26.06 99.95-25.61 101.85-25.2L101.85-25.2Q102.31-25.1 102.31-24.66L102.31-24.66Q102.31-24.34 102.02-23.68L102.02-23.68 91.96-2.29Q91.77-1.86 91.62-1.59 91.47-1.32 91.33-1.15 91.18-0.98 91.01-0.9 90.84-0.83 90.6-0.78L90.6-0.78Q88.74-0.42 86.84 0.06 84.93 0.54 82.88 1.25L82.88 1.25Q82.83 1.25 82.81 1.26 82.78 1.27 82.76 1.27L82.76 1.27 82.59 1.27Q82.47 1.27 82.39 1.18 82.32 1.1 82.29 1.03L82.29 1.03Q81.93-0.02 81.45-1.68 80.98-3.34 80.41-5.4 79.85-7.45 79.24-9.77 78.63-12.08 78-14.48 77.36-16.87 76.74-19.23 76.12-21.58 75.53-23.68L75.53-23.68Q75.31-24.44 75.31-24.76L75.31-24.76Q75.31-25.1 75.7-25.2L75.7-25.2Q77.61-25.61 79.66-26.06 81.71-26.51 83.54-27.22L83.54-27.22Q83.61-27.25 83.76-27.25L83.76-27.25Q84.08-27.25 84.1-27L84.1-27 87.32-10.6Q87.45-10.89 87.74-11.66 88.03-12.43 88.45-13.5 88.86-14.58 89.36-15.87 89.86-17.16 90.39-18.51 90.91-19.85 91.43-21.18 91.94-22.51 92.39-23.66 92.84-24.8 93.18-25.68 93.53-26.56 93.7-27ZM103.73-10.35L103.73-10.35Q104.05-13.7 104.36-16.97 104.68-20.24 104.92-23.68L104.92-23.68Q104.97-24.49 105.08-24.79 105.19-25.1 105.63-25.2L105.63-25.2Q107.71-25.61 109.98-26.06 112.25-26.51 114.37-27.22L114.37-27.22Q114.45-27.25 114.59-27.25L114.59-27.25Q114.86-27.25 114.86-27.05L114.86-27.05 112.66-3.27Q112.59-2.47 112.49-2.16 112.39-1.86 111.96-1.76L111.96-1.76Q109.88-1.12 107.76-0.34 105.63 0.44 103.26 1.25L103.26 1.25Q103.19 1.27 103.04 1.27L103.04 1.27Q102.78 1.27 102.78 1.03L102.78 1.03Q102.78 1 102.82 0.37 102.87-0.27 102.96-1.27 103.04-2.27 103.14-3.52 103.24-4.76 103.35-6.01 103.46-7.25 103.56-8.4 103.65-9.55 103.73-10.35ZM105.56-29.83L105.56-29.83Q105.63-30.88 105.67-31.45 105.71-32.01 105.73-32.29 105.75-32.57 105.75-32.64 105.75-32.71 105.77-32.75 105.78-32.79 105.79-32.9 105.8-33.01 105.83-33.36 105.85-33.72 105.9-34.4 105.95-35.08 106.05-36.28L106.05-36.28Q106.1-37.08 106.21-37.39 106.32-37.7 106.76-37.79L106.76-37.79Q108.83-38.21 111.1-38.66 113.37-39.11 115.5-39.82L115.5-39.82Q115.57-39.84 115.72-39.84L115.72-39.84Q115.79-39.7 115.91-39.65L115.91-39.65 115.98-39.6 115.45-32.91Q115.37-32.1 115.26-31.79 115.15-31.47 114.74-31.4L114.74-31.4Q112.66-31.01 110.54-30.54 108.42-30.08 106.05-29.61L106.05-29.61Q105.97-29.59 105.83-29.59L105.83-29.59Q105.56-29.59 105.56-29.83ZM132.58-27.25L132.58-27.25Q134.9-27.25 136.79-26.38 138.69-25.51 140.04-24.13 141.4-22.75 142.13-21.04 142.86-19.34 142.86-17.63L142.86-17.63Q142.86-16.11 141.93-14.59 141.01-13.06 139.33-11.84 137.66-10.62 135.32-9.86 132.97-9.11 130.17-9.11L130.17-9.11Q128.7-9.11 127.09-9.4L127.09-9.4Q127.19-8.35 127.7-7.59 128.21-6.84 128.99-6.35 129.78-5.86 130.76-5.63 131.75-5.4 132.8-5.4L132.8-5.4Q133.97-5.4 135.06-5.6 136.15-5.81 137.15-6.15 138.15-6.49 139.08-6.91 140-7.32 140.83-7.74L140.83-7.74Q141.05-7.79 141.21-7.82 141.37-7.86 141.52-7.86L141.52-7.86Q141.52-7.86 141.51-7.47 141.49-7.08 141.49-6.37 141.49-5.66 141.48-4.66 141.47-3.66 141.45-2.44L141.45-2.44Q141.52-2.32 141.54-2.2 141.57-2.08 141.57-2L141.57-2Q141.57-1.71 141.03-1.37 140.49-1.03 139.63-0.66 138.76-0.29 137.65 0.05 136.54 0.39 135.39 0.67 134.24 0.95 133.17 1.11 132.09 1.27 131.29 1.27L131.29 1.27Q128.65 1.27 126.17 0.35 123.7-0.56 121.78-2.27 119.86-3.98 118.72-6.42 117.57-8.86 117.57-11.91L117.57-11.91Q117.57-15.11 118.67-17.91 119.77-20.7 121.76-22.78 123.74-24.85 126.5-26.05 129.26-27.25 132.58-27.25ZM132.29-20.75L132.29-20.75Q131.29-20.75 130.45-20.32 129.6-19.9 128.91-19.1 128.21-18.31 127.7-17.2 127.19-16.09 126.87-14.75L126.87-14.75Q129.38-15.19 131.04-15.67 132.7-16.16 133.71-16.66 134.71-17.16 135.12-17.66 135.54-18.16 135.54-18.63L135.54-18.63Q135.54-19.07 135.21-19.46 134.88-19.85 134.39-20.14 133.9-20.43 133.33-20.59 132.75-20.75 132.29-20.75ZM146.35-0.07L146.03-6.74Q146.03-6.76 146.02-6.77 146.01-6.79 146.01-6.81L146.01-6.81Q146.01-7.13 146.35-7.13L146.35-7.13Q146.57-7.13 146.74-6.96L146.74-6.96Q147.72-6.03 148.97-5.44 150.23-4.86 151.7-4.86L151.7-4.86Q152.09-4.86 152.6-4.94 153.11-5.03 153.58-5.22 154.04-5.42 154.35-5.75 154.65-6.08 154.65-6.57L154.65-6.57Q154.65-7.1 154.38-7.56 154.11-8.01 153.67-8.3L153.67-8.3Q153.43-8.47 152.82-8.9 152.21-9.33 151.51-9.81 150.82-10.3 150.2-10.74 149.57-11.18 149.33-11.38L149.33-11.38Q148.23-12.21 147.58-13.06 146.94-13.92 146.59-14.83 146.25-15.75 146.15-16.75 146.06-17.75 146.06-18.87L146.06-18.87Q146.06-20.58 146.96-22.09 147.86-23.61 149.34-24.76 150.82-25.9 152.7-26.57 154.58-27.25 156.53-27.25L156.53-27.25Q158.14-27.25 159.7-26.76 161.27-26.27 162.61-25.1L162.61-25.1Q162.73-23.56 162.78-22.07 162.83-20.58 162.93-18.95L162.93-18.95Q162.93-18.63 162.78-18.52 162.63-18.41 162.44-18.41L162.44-18.41Q162.27-18.41 162.15-18.53L162.15-18.53Q161.58-19.07 161-19.59 160.41-20.12 159.77-20.52 159.12-20.92 158.39-21.18 157.65-21.44 156.82-21.44L156.82-21.44Q156.31-21.44 155.8-21.35 155.29-21.26 154.87-21.03 154.46-20.8 154.2-20.41 153.94-20.02 153.94-19.41L153.94-19.41Q153.94-18.7 154.11-18.19 154.28-17.68 154.92-17.19L154.92-17.19 159.46-14.11Q160.71-13.26 161.47-12.44 162.24-11.62 162.68-10.82 163.12-10.01 163.28-9.22 163.44-8.42 163.44-7.64L163.44-7.64Q163.44-5.44 162.43-3.77 161.41-2.1 159.8-0.99 158.19 0.12 156.15 0.7 154.11 1.27 152.06 1.27L152.06 1.27Q150.5 1.27 149.05 0.94 147.59 0.61 146.35-0.07L146.35-0.07ZM188.93-32.15L188.93-32.15Q188.93-33.03 189.08-33.36 189.24-33.69 189.73-33.81L189.73-33.81 198.13-35.84Q198.45-35.94 198.79-35.94L198.79-35.94Q199.13-35.94 199.25-35.73 199.37-35.52 199.37-34.89L199.37-34.89 199.08-31.05Q198.96-29.37 198.81-27.71 198.67-26.05 198.37-24.8L198.37-24.8 197.93-21.34Q197.74-19.8 197.57-18.01 197.4-16.21 197.2-13.99L197.2-13.99 196.05-1.95Q196.03-1.73 195.96-1.51 195.88-1.29 195.64-1.2L195.64-1.2Q195.47-1.12 194.85-0.88 194.22-0.63 193.37-0.32 192.51 0 191.54 0.35 190.56 0.71 189.68 1 188.8 1.29 188.12 1.49 187.44 1.68 187.19 1.68L187.19 1.68Q186.85 1.68 186.59 1.5 186.34 1.32 186.34 0.81L186.34 0.81Q186.34-2.15 186.68-5.24 187.02-8.33 187.29-11.38L187.29-11.38Q187.34-11.72 187.33-12.01 187.31-12.3 187.36-12.65L187.36-12.65 178.43-12.65 177.43-1.95Q177.4-1.73 177.34-1.53 177.28-1.32 177.01-1.2L177.01-1.2Q176.91-1.15 176.05-0.84 175.18-0.54 174.05-0.13 172.91 0.27 171.8 0.67 170.69 1.07 170.1 1.29L170.1 1.29Q169.81 1.42 169.38 1.55 168.95 1.68 168.54 1.68L168.54 1.68Q168.2 1.68 167.94 1.49 167.69 1.29 167.69 0.78L167.69 0.78Q167.69-0.39 167.77-1.89 167.86-3.39 167.98-5.04 168.1-6.69 168.27-8.42 168.44-10.16 168.61-11.84L168.61-11.84 168.66-12.55Q166.68-12.55 165.79-12.66 164.9-12.77 164.9-13.23L164.9-13.23Q164.9-13.55 165.27-14.06L165.27-14.06Q165.76-14.75 166.4-15.71 167.05-16.67 167.65-17.61 168.25-18.55 168.72-19.3 169.2-20.04 169.35-20.26L169.35-20.26 169.91-26.15Q169.91-26.2 169.96-26.88 170-27.56 170.08-28.5 170.15-29.44 170.24-30.44 170.32-31.45 170.4-32.15L170.4-32.15Q170.44-33.01 170.53-33.35 170.61-33.69 171.1-33.81L171.1-33.81 179.4-35.84Q179.72-35.94 180.06-35.94L180.06-35.94Q180.4-35.94 180.53-35.73 180.65-35.52 180.65-34.89L180.65-34.89Q180.48-33.13 180.38-31.69 180.28-30.25 180.17-29 180.06-27.76 179.94-26.64 179.82-25.51 179.6-24.34L179.6-24.34 179.11-20.56 187.97-20.65Q188.19-23.9 188.46-26.17 188.73-28.44 188.8-29.76L188.8-29.76Q188.88-31.01 188.9-31.54 188.93-32.08 188.93-32.15ZM229.84-27L227.55-3.03Q227.47-2.22 227.35-1.92 227.23-1.61 226.81-1.51L226.81-1.51Q224.74-0.93 222.48-0.33 220.22 0.27 218.1 1.25L218.1 1.25Q218.02 1.27 217.88 1.27L217.88 1.27Q217.68 1.27 217.65 1.17 217.61 1.07 217.61 0.95L217.61 0.95Q217.61 0.9 217.62 0.78 217.63 0.66 217.68 0.33 217.73 0 217.82-0.59 217.9-1.17 218.05-2.15L218.05-2.15Q215.31-0.37 213.2 0.45 211.09 1.27 209.46 1.27L209.46 1.27Q205.38 1.27 203.51-0.7 201.64-2.66 201.64-6.57L201.64-6.57Q201.64-7.28 201.67-8.02 201.69-8.76 201.81-9.55L201.81-9.55Q202.08-12.43 202.28-14.49 202.47-16.55 202.59-17.99 202.72-19.43 202.8-20.35 202.89-21.26 202.95-21.88 203.01-22.49 203.05-22.89 203.08-23.29 203.13-23.68L203.13-23.68Q203.23-24.46 203.32-24.78 203.4-25.1 203.86-25.2L203.86-25.2Q205.01-25.42 206.05-25.6 207.09-25.78 208.1-25.99 209.11-26.2 210.16-26.44 211.21-26.68 212.38-27.03L212.38-27.03Q212.43-27.03 212.48-27.04 212.53-27.05 212.58-27.05L212.58-27.05Q212.87-27.05 212.87-26.86L212.87-26.86 212.87-26.81Q212.78-25.98 212.7-25.24 212.63-24.51 212.56-23.74 212.48-22.97 212.4-22.09 212.31-21.22 212.19-20.06 212.07-18.9 211.9-17.38 211.73-15.87 211.48-13.87L211.48-13.87Q211.34-12.4 211.19-10.95 211.04-9.5 211.04-8.25L211.04-8.25Q211.04-7.57 211.14-6.99 211.24-6.42 211.49-6.02 211.75-5.62 212.17-5.4 212.58-5.18 213.24-5.18L213.24-5.18Q213.75-5.18 214.63-5.41 215.51-5.64 216.39-6.21 217.27-6.79 217.94-7.73 218.61-8.67 218.71-10.11L218.71-10.11Q218.88-12.52 219.01-14.15 219.15-15.77 219.25-16.88 219.34-17.99 219.42-18.75 219.49-19.51 219.55-20.2 219.61-20.9 219.66-21.69 219.71-22.49 219.76-23.68L219.76-23.68Q219.83-24.49 219.94-24.79 220.05-25.1 220.49-25.2L220.49-25.2Q222.71-25.63 225.03-26.09 227.35-26.54 229.57-27.25L229.57-27.25Q229.77-27.25 229.8-27.19 229.84-27.12 229.84-27L229.84-27ZM244.1-17.43L243.29-7.96Q243.53-7.47 243.99-6.97 244.44-6.47 245.04-6.05 245.63-5.64 246.34-5.38 247.05-5.13 247.81-5.13L247.81-5.13Q248.86-5.13 249.78-5.94 250.71-6.76 251.41-8.14 252.1-9.52 252.49-11.29 252.89-13.06 252.89-14.97L252.89-14.97Q252.89-16.14 252.68-17.19 252.47-18.24 252.03-19.02 251.59-19.8 250.9-20.26 250.2-20.73 249.22-20.73L249.22-20.73Q247.64-20.73 246.32-19.8 245-18.87 244.1-17.43L244.1-17.43ZM234.21 1.2L234.21 1.2Q233.87 1.27 233.67 1.27L233.67 1.27Q232.89 1.27 232.89 0.34L232.89 0.34Q232.89 0.22 232.9 0.1 232.91-0.02 232.94-0.17L232.94-0.17 235.77-34.72Q235.77-34.79 235.78-34.86 235.8-34.94 235.8-34.99L235.8-34.99Q235.8-35.08 235.78-35.16 235.77-35.23 235.77-35.28L235.77-35.28Q235.77-35.5 235.93-35.63 236.09-35.77 236.75-35.94L236.75-35.94 243.61-37.57Q243.88-37.62 244.32-37.79 244.76-37.96 245.17-37.96L245.17-37.96Q245.49-37.96 245.77-37.82 246.05-37.67 246.05-37.26L246.05-37.26Q246.05-37.21 246.04-37.16 246.02-37.11 246.02-37.06L246.02-37.06Q246-36.94 245.9-35.99 245.81-35.03 245.68-33.68 245.56-32.32 245.41-30.77 245.27-29.22 245.15-27.87 245.02-26.51 244.93-25.56 244.83-24.61 244.8-24.49L244.8-24.49Q246.59-25.66 248.49-26.45 250.4-27.25 252.3-27.25L252.3-27.25Q254.81-27.25 256.65-26.21 258.48-25.17 259.67-23.45 260.87-21.73 261.44-19.48 262.02-17.24 262.02-14.84L262.02-14.84Q262.02-12.92 261.66-10.97 261.31-9.03 260.64-7.25 259.97-5.47 258.95-3.91 257.94-2.34 256.63-1.2 255.33-0.05 253.72 0.61 252.1 1.27 250.22 1.27L250.22 1.27Q247.95 1.27 246.07 0.27 244.19-0.73 242.58-2.32L242.58-2.32Q242.53-1.73 242.51-1.39 242.48-1.05 242.35-0.87 242.22-0.68 241.95-0.57 241.68-0.46 241.14-0.34L241.14-0.34Q240.87-0.27 240.2-0.11 239.53 0.05 238.59 0.26 237.65 0.46 236.52 0.71 235.38 0.95 234.21 1.2Z" opacity="1" transform="matrix(1,0,0,1,0,0)" fill="#ffffff" class="wordmark-text-0" data-fill-palette-color="primary" id="text-0"></path></svg></g></svg></g><g transform="matrix(1,0,0,1,211.40544,77.94606973132628)"><svg viewBox="0 0 184.11455999999998 25.389714021424926" height="25.389714021424926" width="184.11455999999998"><g transform="matrix(1,0,0,1,0,0)"><svg width="184.11455999999998" viewBox="1.95 -39.11 287.14 39.6" height="25.389714021424926" data-palette-color="#62698b"><path d="M23.73-33.15L30.35-33.15 36.77-9.5 37.87-4.44 38.35-4.44 39.43-9.5 45.78-35.77 51.27-35.77 41.43 0 34.25 0 28.2-21.29 26.9-27.25 26.42-27.25 25.15-21.29 19.07 0 11.89 0 1.95-35.77 8.35-35.77 14.75-9.5 15.72-4.44 16.19-4.44 17.33-9.5 23.73-33.15ZM69.53-3.81L69.53-3.81Q68.89-3.27 68-2.53 67.11-1.78 66.03-1.11 64.94-0.44 63.66 0.02 62.38 0.49 60.96 0.49L60.96 0.49Q59.52 0.49 58.29-0.04 57.05-0.56 56.14-1.5 55.22-2.44 54.7-3.75 54.17-5.05 54.17-6.64L54.17-6.64Q54.17-8.3 54.84-9.89 55.52-11.47 57.09-12.72 58.66-13.96 61.25-14.73 63.84-15.5 67.65-15.5L67.65-15.5 69.43-15.5 69.43-17.5Q69.43-18.58 69.06-19.43 68.7-20.29 68.04-20.9 67.38-21.51 66.46-21.83 65.55-22.14 64.43-22.14L64.43-22.14Q63.55-22.14 62.55-21.94 61.55-21.73 60.57-21.36 59.59-21 58.66-20.5 57.74-20 57-19.41L57-19.41 56.56-19.65 55.44-23.75Q58.4-25.29 60.94-25.83 63.47-26.37 65.7-26.37L65.7-26.37Q67.99-26.37 69.79-25.9 71.58-25.44 72.82-24.48 74.07-23.51 74.72-22.03 75.36-20.56 75.36-18.53L75.36-18.53 75.36-6.57Q75.36-6.2 75.42-5.76 75.49-5.32 75.67-4.93 75.85-4.54 76.21-4.27 76.56-4 77.15-4L77.15-4Q77.49-4 77.98-4.1 78.46-4.2 78.95-4.42L78.95-4.42 78.95-1.49Q77.63-0.59 76.33-0.05 75.02 0.49 73.78 0.49L73.78 0.49Q72.8 0.49 72.09 0.12 71.38-0.24 70.9-0.84 70.41-1.44 70.08-2.21 69.75-2.98 69.53-3.81ZM69.43-6.96L69.43-12.62 67.89-12.62Q65.35-12.62 63.8-12.27 62.25-11.91 61.4-11.29 60.54-10.67 60.26-9.85 59.98-9.03 59.98-8.08L59.98-8.08Q59.98-7.08 60.28-6.32 60.57-5.57 61.07-5.05 61.57-4.54 62.25-4.27 62.94-4 63.72-4L63.72-4Q64.3-4 64.94-4.14 65.57-4.27 66.27-4.61 66.97-4.96 67.75-5.52 68.53-6.08 69.43-6.96L69.43-6.96ZM85.93-7.15L85.93-21.66 80.73-21.66 81.17-24.44Q83.1-24.93 84.26-25.54 85.42-26.15 86.19-27.04 86.96-27.93 87.53-29.21 88.11-30.49 88.86-32.32L88.86-32.32 91.69-32.32 91.69-25.88 101-25.88 99.95-21.66 91.87-21.66 91.87-8.33Q91.87-7.13 92.21-6.31 92.55-5.49 93.18-4.98 93.82-4.47 94.71-4.24 95.6-4 96.72-4L96.72-4Q97.8-4 98.86-4.2 99.92-4.39 100.87-4.76L100.87-4.76 100.87-1.78Q99.21-0.66 97.32-0.09 95.43 0.49 93.5 0.49L93.5 0.49Q89.81 0.49 87.87-1.51 85.93-3.52 85.93-7.15L85.93-7.15ZM125.65-5.32L125.65-2.37Q123.92-0.98 121.79-0.24 119.67 0.49 117.23 0.49L117.23 0.49Q114.49 0.49 112.3-0.43 110.1-1.34 108.56-2.97 107.02-4.59 106.19-6.85 105.36-9.11 105.36-11.82L105.36-11.82Q105.36-15.01 106.49-17.69 107.61-20.36 109.55-22.29 111.49-24.22 114.13-25.29 116.76-26.37 119.79-26.37L119.79-26.37Q120.45-26.37 121.21-26.31 121.97-26.25 122.76-26.12 123.55-26 124.32-25.79 125.09-25.59 125.75-25.29L125.75-25.29 124.7-20.75 124.19-20.51Q123.75-20.83 123.15-21.13 122.55-21.44 121.87-21.66 121.18-21.88 120.45-22.01 119.72-22.14 119.01-22.14L119.01-22.14Q117.45-22.14 116.09-21.53 114.74-20.92 113.73-19.75 112.71-18.58 112.13-16.88 111.54-15.19 111.54-13.04L111.54-13.04Q111.54-10.79 112.18-9.11 112.81-7.42 113.93-6.29 115.06-5.15 116.59-4.58 118.13-4 119.94-4L119.94-4Q121.06-4 122.5-4.27 123.94-4.54 125.65-5.32L125.65-5.32ZM132.36 0L132.36-39.11 138.27-39.11 138.27-21.7Q139.17-22.51 140.26-23.33 141.35-24.15 142.56-24.83 143.76-25.51 145.11-25.94 146.45-26.37 147.89-26.37L147.89-26.37Q149.65-26.37 151.09-25.71 152.53-25.05 153.55-23.85 154.58-22.66 155.14-20.97 155.7-19.29 155.7-17.24L155.7-17.24 155.7 0 149.77 0 149.77-16.58Q149.77-17.9 149.4-18.88 149.04-19.87 148.4-20.53 147.77-21.19 146.88-21.52 145.99-21.85 144.96-21.85L144.96-21.85Q143.15-21.85 141.54-20.92 139.93-20 138.27-18.48L138.27-18.48 138.27 0 132.36 0ZM174.5 0L174.5-25.88 179.28-25.88 180.11-21.46Q180.97-22.24 182.04-23.11 183.11-23.97 184.38-24.69 185.65-25.42 187.06-25.89 188.46-26.37 189.98-26.37L189.98-26.37Q191.76-26.37 193.21-25.7 194.66-25.02 195.69-23.82 196.71-22.61 197.28-20.92 197.84-19.24 197.84-17.24L197.84-17.24 197.84 0 191.9 0 191.9-16.53Q191.9-17.85 191.54-18.85 191.17-19.85 190.52-20.51 189.88-21.17 188.99-21.51 188.1-21.85 187.07-21.85L187.07-21.85Q185.26-21.85 183.65-20.92 182.04-20 180.4-18.48L180.4-18.48 180.4 0 174.5 0ZM216.93 0.49L216.93 0.49Q213.87 0.49 211.54-0.54 209.21-1.56 207.62-3.31 206.04-5.05 205.22-7.35 204.4-9.64 204.4-12.21L204.4-12.21Q204.4-15.16 205.45-17.74 206.5-20.31 208.39-22.23 210.29-24.15 212.9-25.26 215.51-26.37 218.63-26.37L218.63-26.37Q221.69-26.37 224.03-25.34 226.37-24.32 227.96-22.56 229.55-20.8 230.37-18.49 231.18-16.19 231.18-13.62L231.18-13.62Q231.18-10.64 230.12-8.07 229.06-5.49 227.16-3.59 225.25-1.68 222.64-0.6 220.03 0.49 216.93 0.49ZM217.95-3.74L217.95-3.74Q219.51-3.74 220.81-4.38 222.1-5.03 223.03-6.19 223.96-7.35 224.47-8.96 224.98-10.57 224.98-12.52L224.98-12.52Q224.98-14.43 224.48-16.16 223.98-17.9 223.03-19.23 222.08-20.56 220.71-21.35 219.34-22.14 217.61-22.14L217.61-22.14Q216.02-22.14 214.73-21.48 213.43-20.83 212.52-19.65 211.6-18.48 211.09-16.86 210.58-15.23 210.58-13.31L210.58-13.31Q210.58-11.38 211.08-9.64 211.58-7.91 212.53-6.59 213.48-5.27 214.85-4.5 216.22-3.74 217.95-3.74ZM234.92-25.88L241.36-25.88 245.51-8.84 246.27-4.44 246.73-4.44 247.59-8.79 252.18-25.1 258.77-25.1 263.33-8.84 264.24-4.44 264.73-4.44 265.48-8.79 269.68-25.88 275.15-25.88 267.34 0 260.75 0 256.4-14.94 255.33-19.85 254.84-19.85 253.72-14.92 249.25 0 242.63 0 234.92-25.88ZM287.04-12.94L282.77-12.94 281.64-35.77 288.14-35.77 287.04-12.94ZM284.94 0.49L284.94 0.49Q284.08 0.49 283.34 0.16 282.59-0.17 282.05-0.72 281.5-1.27 281.18-2.01 280.86-2.76 280.86-3.59L280.86-3.59Q280.86-4.44 281.19-5.21 281.52-5.98 282.08-6.56 282.64-7.13 283.4-7.46 284.16-7.79 285.01-7.79L285.01-7.79Q285.87-7.79 286.61-7.46 287.36-7.13 287.9-6.56 288.45-5.98 288.77-5.22 289.09-4.47 289.09-3.61L289.09-3.61Q289.09-2.76 288.76-2.01 288.43-1.27 287.87-0.72 287.31-0.17 286.55 0.16 285.79 0.49 284.94 0.49Z" opacity="1" transform="matrix(1,0,0,1,0,0)" fill="#ffffff" class="slogan-text-1" data-fill-palette-color="secondary" id="text-1"></path></svg></g></svg></g></svg></g></svg></g><g><svg viewBox="0 0 204.52031263499438 144.23815367776518" height="144.23815367776518" width="204.52031263499438"><g><svg xmlns="http://www.w3.org/2000/svg" xmlns:xlink="http://www.w3.org/1999/xlink" version="1.1" x="0" y="0" viewBox="0.5000000000000002 10.9 71.03853870664699 50.1" enable-background="new 0 0 72 72" xml:space="preserve" height="144.23815367776518" width="204.52031263499438" class="icon-icon-0" data-fill-palette-color="accent" id="icon-0"><g fill="#f50909" data-fill-palette-color="accent"><path fill="#ffffff" d="M70.2 10.9H22.8c-0.6 0-1.1 0.4-1.3 1L8.8 59.4c-0.2 0.8 0.4 1.6 1.3 1.6h47.4c0.6 0 1.1-0.4 1.3-1l12.7-47.5C71.7 11.7 71.1 10.9 70.2 10.9zM19.6 53.1l-1 3.7c-0.2 0.6-0.7 1-1.3 1h-3.6c-0.9 0-1.5-0.8-1.3-1.6l1-3.7c0.2-0.6 0.7-1 1.3-1h3.6C19.2 51.4 19.9 52.2 19.6 53.1zM35.2 18.9l1-3.7c0.2-0.6 0.7-1 1.3-1h3.6c0.9 0 1.5 0.8 1.3 1.6l-1 3.7c-0.2 0.6-0.7 1-1.3 1h-3.6C35.6 20.6 34.9 19.8 35.2 18.9zM22.4 18.9l1-3.7c0.2-0.6 0.7-1 1.3-1h3.6c0.9 0 1.5 0.8 1.3 1.6l-1 3.7c-0.2 0.6-0.7 1-1.3 1h-3.6C22.8 20.6 22.2 19.8 22.4 18.9zM32.4 53.1l-1 3.7c-0.2 0.6-0.7 1-1.3 1h-3.6c-0.9 0-1.5-0.8-1.3-1.6l1-3.7c0.2-0.6 0.7-1 1.3-1h3.6C32 51.4 32.6 52.2 32.4 53.1zM45.1 53.1l-1 3.7c-0.2 0.6-0.7 1-1.3 1h-3.6c-0.9 0-1.5-0.8-1.3-1.6l1-3.7c0.2-0.6 0.7-1 1.3-1h3.6C44.7 51.4 45.3 52.2 45.1 53.1zM45.6 37.2l-11.7 9.3c-1.4 1.1-3 0.3-2.6-1.2l5-18.5c0.4-1.5 2.5-2.3 3.2-1.2l6.8 9.3C46.8 35.5 46.5 36.5 45.6 37.2zM47.9 18.9l1-3.7c0.2-0.6 0.7-1 1.3-1h3.6c0.9 0 1.5 0.8 1.3 1.6l-1 3.7c-0.2 0.6-0.7 1-1.3 1h-3.6C48.3 20.6 47.6 19.8 47.9 18.9zM57.8 53.1l-1 3.7c-0.2 0.6-0.7 1-1.3 1h-3.6c-0.9 0-1.5-0.8-1.3-1.6l1-3.7c0.2-0.6 0.7-1 1.3-1h3.6C57.4 51.4 58 52.2 57.8 53.1zM67.8 15.9l-1 3.7c-0.2 0.6-0.7 1-1.3 1h-3.6c-0.9 0-1.5-0.8-1.3-1.6l1-3.7c0.2-0.6 0.7-1 1.3-1h3.6C67.4 14.2 68 15 67.8 15.9z" data-fill-palette-color="accent"></path><path fill="#ffffff" d="M3.2 24.1h9.4c1 0 1.7-0.8 1.7-1.7 0-1-0.8-1.7-1.7-1.7H3.2c-1 0-1.7 0.8-1.7 1.7C1.5 23.4 2.3 24.1 3.2 24.1z" data-fill-palette-color="accent"></path><path fill="#ffffff" d="M2.2 33.2h7.4c1 0 1.7-0.8 1.7-1.7 0-1-0.8-1.7-1.7-1.7H2.2c-1 0-1.7 0.8-1.7 1.7C0.5 32.4 1.3 33.2 2.2 33.2z" data-fill-palette-color="accent"></path><path fill="#ffffff" d="M8.4 38.8H3.2c-1 0-1.7 0.8-1.7 1.7 0 1 0.8 1.7 1.7 1.7h5.2c1 0 1.7-0.8 1.7-1.7C10.1 39.6 9.3 38.8 8.4 38.8z" data-fill-palette-color="accent"></path><path fill="#ffffff" d="M5 47.9H2.2c-1 0-1.7 0.8-1.7 1.7 0 1 0.8 1.7 1.7 1.7H5c1 0 1.7-0.8 1.7-1.7C6.7 48.6 6 47.9 5 47.9z" data-fill-palette-color="accent"></path></g></svg></g></svg></g></svg></g><defs></defs></svg><rect width="395.52" height="92.77372042872076" fill="none" stroke="none" visibility="hidden"></rect></g></svg></g></svg>